REM DIRINDEX 1\6,1\2\7,1\2\8,1\2\9,1\3\10,1\3\11,1\4\12,1\4\13,1\4\14,1\5\15,1\5\16,1\5\17
REM DIRNAME folder01,folder02,folder03,folder04,folder05,folder06,folder07,folder08,folder09,folder10,folder11,folder12,folder13,folder14,folder15,folder16,folder17
TITLE ""
FILE "3Q_t_0545-0560.mp3" MP3
  TRACK 01 AUDIO
    TITLE "10:cjc041_2698"
    INDEX 01 00:00:00
  TRACK 02 AUDIO
    TITLE "0:"
    INDEX 01 00:01:15
  TRACK 03 AUDIO
    TITLE "11:cjc041_2699"
    INDEX 01 00:01:73
  TRACK 04 AUDIO
    TITLE "0:"
    INDEX 01 00:03:31
  TRACK 05 AUDIO
    TITLE "10:cjc041_2700"
    INDEX 01 00:04:05
  TRACK 06 AUDIO
    TITLE "0:"
    INDEX 01 00:05:22
  TRACK 07 AUDIO
    TITLE "11:cjc041_2701"
    INDEX 01 00:05:73
  TRACK 08 AUDIO
    TITLE "0:"
    INDEX 01 00:08:36
  TRACK 09 AUDIO
    TITLE "10:cjc041_2702"
    INDEX 01 00:09:14
  TRACK 10 AUDIO
    TITLE "0:"
    INDEX 01 00:10:27
  TRACK 11 AUDIO
    TITLE "11:cjc041_2703"
    INDEX 01 00:11:11
  TRACK 12 AUDIO
    TITLE "0:"
    INDEX 01 00:12:34
  TRACK 13 AUDIO
    TITLE "10:cjc041_2704"
    INDEX 01 00:13:08
  TRACK 14 AUDIO
    TITLE "0:"
    INDEX 01 00:14:25
  TRACK 15 AUDIO
    TITLE "11:cjc041_2705"
    INDEX 01 00:15:01
  TRACK 16 AUDIO
    TITLE "0:"
    INDEX 01 00:16:18
  TRACK 17 AUDIO
    TITLE "10:cjc041_2706"
    INDEX 01 00:16:71
  TRACK 18 AUDIO
    TITLE "0:"
    INDEX 01 00:17:70
  TRACK 19 AUDIO
    TITLE "11:cjc041_2707"
    INDEX 01 00:18:50
  TRACK 20 AUDIO
    TITLE "0:"
    INDEX 01 00:21:00
  TRACK 21 AUDIO
    TITLE "10:cjc041_2708"
    INDEX 01 00:21:55
  TRACK 22 AUDIO
    TITLE "0:"
    INDEX 01 00:22:66
  TRACK 23 AUDIO
    TITLE "11:cjc041_2709"
    INDEX 01 00:23:46
  TRACK 24 AUDIO
    TITLE "0:"
    INDEX 01 00:24:69
  TRACK 25 AUDIO
    TITLE "10:cjc041_2710"
    INDEX 01 00:25:43
  TRACK 26 AUDIO
    TITLE "0:"
    INDEX 01 00:27:00
  TRACK 27 AUDIO
    TITLE "11:cjc041_2711"
    INDEX 01 00:27:43
  TRACK 28 AUDIO
    TITLE "0:"
    INDEX 01 00:28:64
  TRACK 29 AUDIO
    TITLE "10:cjc041_2712"
    INDEX 01 00:29:40
  TRACK 30 AUDIO
    TITLE "0:"
    INDEX 01 00:30:42
  TRACK 31 AUDIO
    TITLE "11:cjc041_2713"
    INDEX 01 00:31:24
  TRACK 32 AUDIO
    TITLE "0:"
    INDEX 01 00:32:21
  TRACK 33 AUDIO
    TITLE "10:cjc041_2714"
    INDEX 01 00:33:01
  TRACK 34 AUDIO
    TITLE "0:"
    INDEX 01 00:34:34
  TRACK 35 AUDIO
    TITLE "11:cjc041_2715"
    INDEX 01 00:35:12
  TRACK 36 AUDIO
    TITLE "0:"
    INDEX 01 00:36:38
  TRACK 37 AUDIO
    TITLE "10:cjc041_2716"
    INDEX 01 00:37:22
  TRACK 38 AUDIO
    TITLE "0:"
    INDEX 01 00:38:57
  TRACK 39 AUDIO
    TITLE "11:cjc041_2717"
    INDEX 01 00:39:33
  TRACK 40 AUDIO
    TITLE "0:"
    INDEX 01 00:40:46
  TRACK 41 AUDIO
    TITLE "10:cjc041_2718"
    INDEX 01 00:41:22
  TRACK 42 AUDIO
    TITLE "0:"
    INDEX 01 00:42:49
  TRACK 43 AUDIO
    TITLE "11:cjc041_2719"
    INDEX 01 00:43:25
  TRACK 44 AUDIO
    TITLE "0:"
    INDEX 01 00:45:63
  TRACK 45 AUDIO
    TITLE "10:cjc041_2720"
    INDEX 01 00:46:37
  TRACK 46 AUDIO
    TITLE "0:"
    INDEX 01 00:47:60
  TRACK 47 AUDIO
    TITLE "11:cjc041_2721"
    INDEX 01 00:48:32
  TRACK 48 AUDIO
    TITLE "0:"
    INDEX 01 00:49:67
  TRACK 49 AUDIO
    TITLE "10:cjc041_2722"
    INDEX 01 00:50:44
  TRACK 50 AUDIO
    TITLE "0:"
    INDEX 01 00:51:54
  TRACK 51 AUDIO
    TITLE "11:cjc041_2723"
    INDEX 01 00:52:32
  TRACK 52 AUDIO
    TITLE "0:"
    INDEX 01 00:54:70
  TRACK 53 AUDIO
    TITLE "10:cjc041_2724"
    INDEX 01 00:55:48
  TRACK 54 AUDIO
    TITLE "0:"
    INDEX 01 00:56:63
  TRACK 55 AUDIO
    TITLE "11:cjc041_2725"
    INDEX 01 00:57:39
  TRACK 56 AUDIO
    TITLE "0:"
    INDEX 01 01:00:00
  TRACK 57 AUDIO
    TITLE "10:cjc041_2726"
    INDEX 01 01:00:55
  TRACK 58 AUDIO
    TITLE "0:"
    INDEX 01 01:01:66
  TRACK 59 AUDIO
    TITLE "11:cjc041_2727"
    INDEX 01 01:02:36
  TRACK 60 AUDIO
    TITLE "0:"
    INDEX 01 01:03:69
  TRACK 61 AUDIO
    TITLE "10:cjc041_2728"
    INDEX 01 01:04:50
  TRACK 62 AUDIO
    TITLE "0:"
    INDEX 01 01:05:66
  TRACK 63 AUDIO
    TITLE "11:cjc041_2729"
    INDEX 01 01:06:47
  TRACK 64 AUDIO
    TITLE "0:"
    INDEX 01 01:08:19
